<svg width="260" height="260" viewBox="0 0 260 260" fill="none" xmlns="http://www.w3.org/2000/svg">
<path d="M130 245C193.513 245 245 193.513 245 130C245 66.4873 193.513 15 130 15C66.4873 15 15 66.4873 15 130C15 193.513 66.4873 245 130 245Z" stroke="#00C2FF" stroke-width="30"/>
<path d="M75.5 148V144.05C78.6667 141.85 81.3167 139.883 83.45 138.15C85.6167 136.383 87.35 134.783 88.65 133.35C89.95 131.883 90.8833 130.483 91.45 129.15C92.05 127.817 92.35 126.467 92.35 125.1C92.35 123.367 91.7833 121.95 90.65 120.85C89.55 119.717 88.0333 119.15 86.1 119.15C84.0333 119.15 82.3833 119.85 81.15 121.25C79.95 122.617 79.2667 124.5 79.1 126.9L74.45 124.75C74.75 121.617 75.95 119.133 78.05 117.3C80.15 115.433 82.9333 114.5 86.4 114.5C88.8333 114.5 90.9 114.967 92.6 115.9C94.3 116.833 95.6 118.083 96.5 119.65C97.4 121.217 97.85 122.967 97.85 124.9C97.85 127 97.3333 129.033 96.3 131C95.2667 132.933 93.6333 134.917 91.4 136.95C89.1667 138.983 86.2333 141.167 82.6 143.5V143.6C83 143.567 83.55 143.533 84.25 143.5C84.95 143.467 85.65 143.45 86.35 143.45C87.05 143.417 87.6167 143.4 88.05 143.4H98.45V148H75.5ZM118.376 148V139.75H102.276V136.1C102.41 135.8 102.693 135.333 103.126 134.7L116.876 115H123.426V135.6H129.026V139.75H123.426V148H118.376ZM107.276 135.6H118.376V123.95C118.376 123.15 118.393 122.333 118.426 121.5C118.493 120.633 118.543 119.783 118.576 118.95H118.476C118.11 119.75 117.626 120.633 117.026 121.6C116.46 122.533 115.926 123.35 115.426 124.05L107.626 135.15C107.526 135.317 107.41 135.467 107.276 135.6ZM135.33 148V111.75H140.68V127C141.513 125.433 142.63 124.3 144.03 123.6C145.463 122.867 147.046 122.5 148.78 122.5C150.546 122.5 152.13 122.85 153.53 123.55C154.963 124.217 156.096 125.25 156.93 126.65C157.763 128.017 158.18 129.733 158.18 131.8V148H152.83V133.5C152.83 131 152.313 129.283 151.28 128.35C150.28 127.383 149.013 126.9 147.48 126.9C146.38 126.9 145.313 127.167 144.28 127.7C143.246 128.2 142.38 129.033 141.68 130.2C141.013 131.333 140.68 132.867 140.68 134.8V148H135.33ZM166.287 148V123H170.837L171.337 127.5C172.703 124.167 175.32 122.5 179.187 122.5C179.687 122.5 180.187 122.55 180.687 122.65C181.187 122.717 181.603 122.833 181.937 123L181.187 127.7C180.82 127.567 180.403 127.467 179.937 127.4C179.503 127.3 178.903 127.25 178.137 127.25C177.07 127.25 176.037 127.533 175.037 128.1C174.07 128.633 173.253 129.467 172.587 130.6C171.953 131.7 171.637 133.083 171.637 134.75V148H166.287Z" fill="#04172A"/>
</svg>
