<svg width="60" height="60" viewBox="0 0 60 60" fill="none" xmlns="http://www.w3.org/2000/svg">
<path d="M48.102 32.7188C47.516 31.3711 46.6137 30.1875 44.809 29.1914C43.8762 28.664 42.8744 28.2696 41.8324 28.0195C42.5334 27.6938 43.1782 27.2587 43.7426 26.7305C44.5722 25.9888 45.201 25.0496 45.5707 24C45.911 22.9334 46.05 21.8128 45.9809 20.6953C45.852 18.7266 45.4652 16.8164 44.434 15.4453C43.4027 14.0742 41.9496 13.0195 40.0277 12.2813C38.5512 11.7188 37.0395 11.3672 34.6957 11.2383V3.75H30.0082V11.25H26.2582V3.75H21.4535V11.25H11.25V16.875H14.516C15.5355 16.875 16.227 16.9688 16.5785 17.1445C16.9056 17.2845 17.1746 17.5328 17.3402 17.8477C17.4926 18.1406 17.5629 18.832 17.5629 19.8984V40.1953C17.5629 41.25 17.4926 41.9297 17.3402 42.2344C17.1879 42.5391 17.1059 42.8086 16.7426 42.9727C16.3793 43.1367 16.3676 43.125 15.3598 43.125H12.266L11.25 48.75H21.4453V56.25H26.25V48.75H30V56.25H34.6875V48.7031C37.7344 48.5508 39.9023 48.1523 41.6484 47.4961C43.9102 46.6523 45.6445 45.4219 46.8867 43.8047C48.1289 42.1875 48.5273 39.7148 48.6363 37.8047C48.7148 36.1055 48.6328 33.9141 48.102 32.7188ZM26.25 17.5781H30V26.25H26.25V17.5781ZM26.25 42.4219V31.875H30V42.4219H26.25ZM34.6875 18.0352C35.3906 18.3281 35.8477 18.9141 36.3047 19.5234C36.8086 20.1914 37.0664 21.082 37.0664 22.0312C37.0664 22.9453 36.7266 23.7305 36.1875 24.4336C35.7422 25.0078 35.3906 25.4063 34.6875 25.7344V18.0352ZM38.0625 39.9141C37.1484 40.7227 36.6211 41.0977 35.4727 41.5312C35.2158 41.6217 34.9536 41.696 34.6875 41.7539V32.0508C35.1459 32.1186 35.592 32.2528 36.0117 32.4492C36.9258 32.8359 37.793 33.2578 38.332 33.9961C38.9298 34.8441 39.2566 35.8532 39.2695 36.8906C39.266 38.168 38.9379 39.1406 38.059 39.9141H38.0625Z" fill="#FFB93E"/>
</svg>
