<svg width="60" height="60" viewBox="0 0 60 60" fill="none" xmlns="http://www.w3.org/2000/svg">
<path d="M9.375 48.75C9.375 50.7391 10.1652 52.6468 11.5717 54.0533C12.9782 55.4598 14.8859 56.25 16.875 56.25H27.6562C27.7806 56.25 27.8998 56.2006 27.9877 56.1127C28.0756 56.0248 28.125 55.9056 28.125 55.7812V34.2188C28.125 34.0944 28.0756 33.9752 27.9877 33.8873C27.8998 33.7994 27.7806 33.75 27.6562 33.75H10.3125C10.0639 33.75 9.8254 33.8488 9.64959 34.0246C9.47377 34.2004 9.375 34.4389 9.375 34.6875V48.75Z" fill="#00C2FF"/>
<path d="M28.125 29.5314V16.8751H31.875V29.5314C31.875 29.6557 31.9244 29.7749 32.0123 29.8628C32.1002 29.9507 32.2194 30.0001 32.3438 30.0001H48.75C49.3888 30.0001 50.0229 29.8911 50.625 29.6778C51.7207 29.2888 52.6693 28.5704 53.3407 27.621C54.0121 26.6716 54.3733 25.5379 54.375 24.3751V22.5001C54.375 21.0083 53.7824 19.5775 52.7275 18.5226C51.6726 17.4677 50.2418 16.8751 48.75 16.8751H43.9992C43.9584 16.8745 43.9185 16.8632 43.8833 16.8423C43.8482 16.8215 43.8192 16.7918 43.799 16.7563C43.7789 16.7208 43.7684 16.6806 43.7686 16.6398C43.7688 16.599 43.7796 16.5589 43.8 16.5235C44.885 14.6918 45.2373 12.5176 44.7865 10.4369C44.3356 8.35616 43.1149 6.52282 41.369 5.30444C39.6231 4.08606 37.4812 3.57272 35.3727 3.86735C33.2642 4.16197 31.345 5.24279 30 6.89308C28.655 5.24279 26.7358 4.16197 24.6273 3.86735C22.5188 3.57272 20.3769 4.08606 18.631 5.30444C16.8851 6.52282 15.6644 8.35616 15.2135 10.4369C14.7627 12.5176 15.115 14.6918 16.2 16.5235C16.2204 16.5589 16.2312 16.599 16.2314 16.6398C16.2316 16.6806 16.2211 16.7208 16.201 16.7563C16.1808 16.7918 16.1518 16.8215 16.1167 16.8423C16.0815 16.8632 16.0416 16.8745 16.0008 16.8751H11.25C9.75816 16.8751 8.32742 17.4677 7.27252 18.5226C6.21763 19.5775 5.625 21.0083 5.625 22.5001V24.3751C5.62665 25.5379 5.98793 26.6716 6.6593 27.621C7.33067 28.5704 8.27925 29.2888 9.375 29.6778V29.6778C9.97713 29.8911 10.6112 30.0001 11.25 30.0001H27.6562C27.7806 30.0001 27.8998 29.9507 27.9877 29.8628C28.0756 29.7749 28.125 29.6557 28.125 29.5314ZM31.875 12.1876C31.875 11.2605 32.1499 10.3542 32.665 9.58337C33.1801 8.81252 33.9121 8.21171 34.7687 7.85692C35.6252 7.50214 36.5677 7.40931 37.477 7.59018C38.3863 7.77105 39.2215 8.21749 39.8771 8.87305C40.5326 9.5286 40.9791 10.3638 41.1599 11.2731C41.3408 12.1824 41.248 13.1249 40.8932 13.9814C40.5384 14.838 39.9376 15.5701 39.1667 16.0851C38.3959 16.6002 37.4896 16.8751 36.5625 16.8751H31.875V12.1876ZM23.1023 7.51183C23.7445 7.46579 24.3893 7.55254 24.9965 7.76667C25.6037 7.9808 26.1602 8.31772 26.6315 8.75641C27.1027 9.19511 27.4785 9.72617 27.7355 10.3165C27.9924 10.9068 28.125 11.5438 28.125 12.1876V16.8751H23.4375C22.2254 16.872 21.0617 16.3995 20.1905 15.5568C19.3193 14.7141 18.8084 13.5666 18.765 12.3553C18.7217 11.144 19.1492 9.963 19.9579 9.06014C20.7666 8.15728 21.8936 7.60277 23.1023 7.513V7.51183Z" fill="#00C2FF"/>
<path d="M32.3438 56.25H43.125C45.1141 56.25 47.0218 55.4598 48.4283 54.0533C49.8348 52.6468 50.625 50.7391 50.625 48.75V34.6875C50.625 34.4389 50.5262 34.2004 50.3504 34.0246C50.1746 33.8488 49.9361 33.75 49.6875 33.75H32.3438C32.2194 33.75 32.1002 33.7994 32.0123 33.8873C31.9244 33.9752 31.875 34.0944 31.875 34.2188V55.7812C31.875 55.9056 31.9244 56.0248 32.0123 56.1127C32.1002 56.2006 32.2194 56.25 32.3438 56.25Z" fill="#00C2FF"/>
</svg>
