<svg width="207" height="193" viewBox="0 0 207 193" fill="none" xmlns="http://www.w3.org/2000/svg">
<g clip-path="url(#clip0)">
<path fill-rule="evenodd" clip-rule="evenodd" d="M205.44 0H206.44L195.12 35.28L187.92 27.6L145.68 67.44L145.2 67.2C138.76 52.6 111 40.23 88.8 47C63.8 54.68 41.1199 85.64 56.6399 117.8L44.6399 129.56L43.9199 129.08C40.5799 118.74 33.0599 107.35 35.7599 91.16C37.4699 81 39.0699 72.05 43.4399 64.56C55.8699 43.26 85.06 20.1 121.44 31.2C131.44 34.25 138.87 39.09 146.44 44.4L169.96 22.32C171.85 20.43 177.9 16.12 175.96 14.4L170.2 7.68V7.44L205.44 0Z" fill="#38C1D2"/>
<path fill-rule="evenodd" clip-rule="evenodd" d="M98.88 4.79999C125.1 4.33999 142.34 12.03 157.44 22.56L153.36 26.88L145.92 33.88C137.7 29.43 130 25 119.52 22.32C75.87 11.32 41.37 43.56 31.2 72.48C28.76 79.42 28.72 86.8 27.36 95.28C25.67 105.83 31.04 120.73 34.08 127.68L38.16 135.6L26.64 146.4L25.92 145.92L19.44 133.92C16.737 127.574 14.6474 120.984 13.2 114.24C1.90002 63.86 37 24.8 68.88 11.28C75 8.69999 82 7.18999 89 5.75999L98.88 4.79999Z" fill="#38C1D2"/>
<path fill-rule="evenodd" clip-rule="evenodd" d="M179.76 46.32C182.28 48.74 183.62 52.66 185.28 55.92C194.72 74.49 198.16 103.03 190.08 126C176.19 165.52 129.22 202.74 73.2 182.88C64.37 179.75 55.2 175.98 48.96 170.16L60.72 159.16C68.41 163.28 75.79 167.69 85.44 170.16C125.28 180.5 155.67 156.16 169.2 133.16C173.49 125.89 181.2 107.21 179.04 94.28C177.62 85.63 177.45 78.01 174.72 71L168.24 57.08L179.76 46.32Z" fill="#38C1D2"/>
<path fill-rule="evenodd" clip-rule="evenodd" d="M99.3599 53.28C116.36 52.96 125.92 58.23 134.16 66.48C136.03 68.35 138.75 70.48 139.44 73.48L127.2 84.72L126.72 84.48C123.45 74.21 107.23 66.01 93.5999 71.48C83.8999 75.4 78.2599 83.2 76.5999 95.24C74.3599 111.11 92.4599 126.58 109.24 122.36C118.04 120.14 121.17 114.85 126.52 109.36L130.6 113.2L138.28 121.6C122.28 145.02 84.5199 144.83 68.1999 121.84C65.3695 117.802 63.1835 113.349 61.7199 108.64C54.1299 83.99 69.8799 63.44 85.9599 56.56C89.9999 54.9 94.8299 55.09 99.3599 53.28Z" fill="#38C1D2"/>
<path fill-rule="evenodd" clip-rule="evenodd" d="M161.76 63.36C164.07 64.94 164.96 69.23 166.08 72C173.15 89.47 171.15 112.08 163.44 127.2C151.58 150.47 120.06 172.67 83 161C74 158.19 67 153.46 60.2 148.52H59.72L29.48 177.32L29.96 177.8L36.2 185V185.24L0 193L11.52 157.72L12.96 158.92L18.48 165.16L49.68 136.16C53.27 133.26 56.61 127.16 61.2 125.6C67.07 139.8 95.2 152.71 117.12 146C142.82 138.12 165.02 107.83 149.76 75L161.76 63.36Z" fill="#38C1D2"/>
</g>
<defs>
<clipPath id="clip0">
<rect width="206.4" height="192.96" fill="white"/>
</clipPath>
</defs>
</svg>
