<svg width="17" height="16" viewBox="0 0 17 16" fill="none" xmlns="http://www.w3.org/2000/svg">
<path fill-rule="evenodd" clip-rule="evenodd" d="M16.6096 0H16.6904L15.7752 2.92477L15.193 2.28809L11.7777 5.5909L11.7389 5.571C11.2182 4.36063 8.97366 3.33514 7.17869 3.89638C5.15732 4.53307 3.32354 7.09971 4.5784 9.76583L3.60814 10.7408L3.54993 10.701C3.27987 9.84376 2.67185 8.89951 2.89015 7.55733C3.02842 6.71504 3.15778 5.97307 3.51112 5.35214C4.51614 3.58633 6.87629 1.66633 9.81779 2.58654C10.6263 2.83939 11.2271 3.24063 11.8392 3.68084L13.7409 1.85037C13.8937 1.69368 14.3828 1.33638 14.226 1.19379L13.7603 0.636686V0.616789L16.6096 0Z" fill="#00C2FF"/>
<path fill-rule="evenodd" clip-rule="evenodd" d="M7.99515 0.397865C10.1152 0.35973 11.5091 0.997244 12.73 1.8702L12.4001 2.22834L11.7986 2.80865C11.1339 2.43974 10.5114 2.07248 9.66399 1.8503C6.13468 0.938384 3.3452 3.61114 2.5229 6.00866C2.32562 6.584 2.32238 7.19581 2.21242 7.89882C2.07578 8.77343 2.50997 10.0087 2.75577 10.5848L3.08565 11.2414L2.15421 12.1368L2.09599 12.097L1.57205 11.1021C1.3535 10.5761 1.18455 10.0297 1.06752 9.47064C0.15386 5.29404 2.99186 2.0559 5.56951 0.935068C6.06434 0.721181 6.63032 0.596 7.19631 0.47745L7.99515 0.397865Z" fill="#00C2FF"/>
<path fill-rule="evenodd" clip-rule="evenodd" d="M14.5348 3.83984C14.7385 4.04047 14.8469 4.36544 14.9811 4.6357C15.7444 6.17519 16.0225 8.54121 15.3692 10.4455C14.2461 13.7217 10.4484 16.8073 5.9189 15.1609C5.20496 14.9014 4.46352 14.5889 3.95898 14.1064L4.90984 13.1945C5.53161 13.536 6.12832 13.9016 6.90856 14.1064C10.1298 14.9636 12.587 12.9458 13.681 11.039C14.0278 10.4363 14.6512 8.88773 14.4766 7.81581C14.3618 7.09871 14.348 6.467 14.1273 5.88586L13.6033 4.73187L14.5348 3.83984Z" fill="#00C2FF"/>
<path fill-rule="evenodd" clip-rule="evenodd" d="M8.03228 4.41716C9.40681 4.39063 10.1798 4.82752 10.846 5.51146C10.9972 5.66649 11.2171 5.84307 11.2729 6.09178L10.2833 7.02359L10.2445 7.0037C9.98007 6.15229 8.6686 5.4725 7.56655 5.92597C6.78226 6.25095 6.32624 6.89758 6.19202 7.89572C6.01091 9.21137 7.47438 10.4939 8.83112 10.144C9.54264 9.95997 9.79572 9.52142 10.2283 9.06629L10.5582 9.38464L11.1791 10.081C9.88547 12.0226 6.83239 12.0068 5.51284 10.1009C5.28399 9.76615 5.10724 9.39699 4.9889 9.0066C4.37522 6.96307 5.64868 5.25944 6.94882 4.68908C7.27547 4.55146 7.666 4.56721 8.03228 4.41716Z" fill="#00C2FF"/>
<path fill-rule="evenodd" clip-rule="evenodd" d="M13.0791 5.25269C13.2658 5.38367 13.3378 5.73932 13.4283 5.96896C14 7.41725 13.8383 9.29166 13.2149 10.5451C12.256 12.4743 9.70742 14.3147 6.71094 13.3472C5.98325 13.1143 5.41727 12.7221 4.86745 12.3126H4.82864L2.3836 14.7002L2.42241 14.74L2.92694 15.3369V15.3568L0 16.0001L0.931446 13.0753L1.04788 13.1748L1.49419 13.6921L4.01686 11.2879C4.30713 11.0475 4.57718 10.5418 4.94831 10.4125C5.42293 11.5897 7.69737 12.66 9.4697 12.1037C11.5477 11.4504 13.3426 8.93933 12.1088 6.21766L13.0791 5.25269Z" fill="#00C2FF"/>
</svg>
