<svg xmlns="http://www.w3.org/2000/svg" width="512" height="512" viewBox="0 0 512 512" version="1.1">
	<path d="M 377 124.588 C 368.475 126.477, 358.241 128.737, 354.257 129.610 L 347.014 131.198 351.585 136.548 C 354.983 140.525, 355.928 142.306, 355.269 143.485 C 354.114 145.548, 315.892 182, 314.883 182 C 314.460 182, 309.926 179.290, 304.807 175.979 C 288.111 165.176, 273.096 160.622, 254.500 160.721 C 244.538 160.774, 240.971 161.238, 233.500 163.453 C 217.107 168.312, 202.679 177.314, 189.931 190.636 C 174.731 206.521, 168.477 219.992, 164.486 245.444 C 162.780 256.321, 162.941 263.681, 165.077 272.500 C 166.381 277.886, 175.330 302, 176.024 302 C 176.327 302, 180.070 298.182, 184.340 293.516 L 192.105 285.032 189.412 277.766 C 187.246 271.924, 186.625 268.229, 186.242 258.911 C 185.717 246.148, 186.604 240.363, 190.658 230.136 C 198.429 210.527, 215.648 193.787, 235.240 186.794 C 243.516 183.840, 263.964 183.601, 274 186.342 C 289.062 190.454, 304.754 200.812, 311.113 210.839 L 313.891 215.220 342.034 187.860 C 357.513 172.812, 370.592 160.349, 371.098 160.164 C 371.604 159.979, 373.995 162.004, 376.411 164.664 C 378.827 167.324, 381.028 169.275, 381.302 169 C 381.576 168.725, 385.163 157.813, 389.274 144.750 C 396.338 122.300, 396.631 121.004, 394.624 121.077 C 393.456 121.119, 385.525 122.699, 377 124.588 M 242.311 128.046 C 215.162 131.401, 191.943 142.610, 171.337 162.311 C 128.921 202.861, 118.722 259.222, 144.205 312.250 C 147.575 319.262, 150.832 325, 151.441 325 C 152.051 325, 155.840 321.688, 159.860 317.641 L 167.171 310.281 164.031 304.062 C 159.408 294.902, 154.280 278.690, 152.943 269 C 151.926 261.631, 152.046 258.305, 153.850 244 C 156.136 225.864, 157.786 220.060, 164.125 207.877 C 178.025 181.159, 202.584 160.399, 229.718 152.431 C 240.452 149.278, 258.090 148.130, 268.548 149.903 C 279.374 151.738, 290.472 155.655, 303 162.064 L 314.500 167.946 322.339 160.127 L 330.178 152.307 322.339 147.288 C 312.525 141.005, 306.475 137.957, 297.234 134.640 C 281.595 129.026, 257.647 126.151, 242.311 128.046 M 352.110 193.389 L 344.758 200.791 348.836 209.645 C 354.956 222.934, 355.754 225.756, 358.065 242.288 C 360.913 262.665, 360.038 271.805, 353.475 290.188 C 343.818 317.241, 322.321 341.013, 296.627 353.053 C 282.445 359.699, 274.817 361.331, 257.500 361.421 C 238.221 361.522, 229.807 359.498, 211.278 350.301 L 198.056 343.737 189.910 351.081 L 181.764 358.425 185.632 361.755 C 190.717 366.134, 205.242 373.137, 218.148 377.433 C 262.879 392.323, 307.372 381.743, 341.699 348.055 C 370.320 319.968, 383.597 284.333, 380.036 245.167 C 378.764 231.180, 375.116 215.841, 370.407 204.684 C 366.269 194.877, 361.882 186.758, 360.481 186.312 C 359.921 186.133, 356.154 189.318, 352.110 193.389 M 248.500 195.920 C 247.400 196.356, 243.459 197.279, 239.741 197.971 C 221.770 201.317, 203.364 220.632, 198.504 241.246 C 193.946 260.579, 200.265 283.758, 213.907 297.743 C 224.587 308.691, 236.543 313.874, 253 314.690 C 270.720 315.569, 285.229 310.463, 296.484 299.387 C 304.916 291.088, 304.936 291.724, 295.927 282 L 288.052 273.500 282.276 279.683 C 275.333 287.114, 270.279 290.380, 263.208 292.004 C 245.337 296.109, 224.195 282.296, 220.437 264.059 C 218.134 252.887, 222.392 238.106, 230.496 229.136 C 232.541 226.872, 237.149 223.575, 240.735 221.810 C 246.502 218.970, 248.192 218.606, 255.377 218.656 C 261.240 218.697, 265.086 219.324, 269.202 220.910 C 275.731 223.426, 284.229 230.590, 286.930 235.855 L 288.772 239.445 296.886 231.549 C 301.349 227.206, 305 222.945, 305 222.080 C 305 219.028, 289.622 205.417, 281.814 201.558 C 271.565 196.492, 254.386 193.585, 248.500 195.920 M 327.680 217.818 L 319.896 225.649 322.575 233.574 C 326.024 243.780, 326.946 259.975, 324.683 270.599 C 319.326 295.743, 297.010 319.231, 272.540 325.478 C 251.951 330.735, 224.145 323.487, 208.403 308.760 C 204.810 305.399, 201.213 301.378, 200.409 299.824 C 199.606 298.271, 198.322 297, 197.555 297 C 196.789 297, 193.313 300.093, 189.831 303.873 C 183.103 311.177, 142.402 350.287, 140.987 350.808 C 140.526 350.978, 138.243 349.049, 135.912 346.521 C 133.582 343.993, 131.353 342.279, 130.959 342.712 C 130.372 343.358, 121.702 369.589, 116.439 386.643 L 115.160 390.785 120.830 389.464 C 123.949 388.737, 135.144 386.248, 145.709 383.933 L 164.919 379.724 160.265 374.276 L 155.610 368.828 174.555 349.968 C 184.975 339.595, 194.470 330.581, 195.655 329.936 C 197.537 328.912, 198.614 329.334, 204.155 333.265 C 212.710 339.335, 223.290 344.512, 232.709 347.239 C 239.302 349.148, 242.884 349.495, 256 349.495 C 269.116 349.495, 272.698 349.148, 279.291 347.239 C 304.086 340.061, 326.714 321.313, 338.349 298.307 C 345.226 284.711, 348.962 262.080, 347.111 245.232 C 346.523 239.880, 345.386 233.025, 344.585 230 C 342.618 222.582, 337.740 210.735, 336.482 210.322 C 335.923 210.138, 331.962 213.512, 327.680 217.818" stroke="none" fill="black" fill-rule="evenodd"/>
</svg>