<svg width="27" height="21" viewBox="0 0 27 21" fill="none" xmlns="http://www.w3.org/2000/svg">
<path fill-rule="evenodd" clip-rule="evenodd" d="M23.1379 16.058C20.3348 19.2197 16.272 20.9067 12.774 20.9067C7.86923 20.9067 3.45368 18.1305 0.11314 13.5131C-0.149316 13.15 0.0858434 12.6552 0.400792 12.938C4.00588 16.1479 8.46344 18.079 13.068 18.079C16.1733 18.079 19.5895 17.0958 22.7305 15.0554C23.2051 14.747 23.6019 15.531 23.1379 16.058" fill="#FF9900"/>
<path fill-rule="evenodd" clip-rule="evenodd" d="M25.0177 13.6826C24.471 12.9816 21.3904 13.3514 20.0076 13.5154C19.5863 13.5669 19.522 13.2003 19.9015 12.9366C22.3551 11.2097 26.3812 11.7082 26.8507 12.287C27.3202 12.869 26.7285 16.9048 24.4228 18.831C24.0691 19.1269 23.7314 18.9693 23.889 18.577C24.4067 17.2843 25.5676 14.3869 25.0177 13.6826" fill="#FF9900"/>
<path fill-rule="evenodd" clip-rule="evenodd" d="M13.6813 7.29974C13.6813 8.1905 13.7038 8.93334 13.2536 9.72441C12.8902 10.3676 12.3114 10.7631 11.6715 10.7631C10.7936 10.7631 10.2791 10.0942 10.2791 9.10699C10.2791 7.15825 12.0252 6.80451 13.6813 6.80451V7.29974V7.29974ZM15.987 12.8726C15.8359 13.0077 15.6172 13.0173 15.4468 12.9273C14.6878 12.297 14.5496 12.0044 14.1347 11.403C12.8806 12.6829 11.9898 13.0656 10.3659 13.0656C8.43965 13.0656 6.94434 11.879 6.94434 9.50253C6.94434 7.64704 7.94765 6.38325 9.38187 5.76583C10.6231 5.21915 12.3564 5.12268 13.6813 4.97154V4.67569C13.6813 4.13223 13.7231 3.48908 13.4015 3.01959C13.125 2.59832 12.5912 2.42467 12.1185 2.42467C11.247 2.42467 10.472 2.87166 10.2823 3.79779C10.2437 4.0036 10.0925 4.20619 9.88352 4.21584L7.66788 3.97787C7.48136 3.93607 7.27234 3.78493 7.32701 3.49873C7.8351 0.81037 10.2662 0 12.44 0C13.5527 0 15.0062 0.295849 15.8841 1.13837C16.9967 2.17706 16.8906 3.56304 16.8906 5.07123V8.63427C16.8906 9.70512 17.3344 10.1746 17.7524 10.7534C17.8971 10.9593 17.9293 11.2069 17.7428 11.3612C17.2765 11.7503 16.4468 12.4739 15.9902 12.8791L15.987 12.8726" fill="white"/>
</svg>
