<svg width="300" height="150" viewBox="0 0 300 150" fill="none" xmlns="http://www.w3.org/2000/svg">
<mask id="mask0" mask-type="alpha" maskUnits="userSpaceOnUse" x="0" y="0" width="300" height="150">
<rect width="300" height="150" fill="#3CC8D9"/>
</mask>
<g mask="url(#mask0)">
<rect width="300" height="150" fill="black"/>
<circle cx="264" cy="136" r="60" stroke="white" stroke-opacity="0.5" stroke-width="2"/>
<g clip-path="url(#clip0)">
<path fill-rule="evenodd" clip-rule="evenodd" d="M83.999 88.8663L83.999 89.7369L53.2826 79.8812L59.9692 73.6126L25.2826 36.8364L25.4916 36.4185C38.203 30.8116 48.9729 6.6424 43.0786 -12.686C36.3921 -34.4521 9.43684 -54.1984 -18.5632 -40.686L-28.802 -51.1337L-28.3841 -51.7606C-19.3816 -54.6686 -9.46491 -61.2158 4.63087 -58.8651C13.4766 -57.3763 21.2689 -55.9832 27.7901 -52.1785C46.3348 -41.3564 66.499 -15.9422 56.8348 15.732C54.1794 24.4384 49.9654 30.9073 45.3423 37.4981L64.5662 57.9757C66.2117 59.6213 69.9642 64.8887 71.4617 63.1996L77.3125 58.1847L77.5214 58.1847L83.999 88.8663Z" fill="#E5E5E5" fill-opacity="0.31"/>
<path fill-rule="evenodd" clip-rule="evenodd" d="M79.8196 -3.90985C80.2201 18.9185 73.5248 33.9285 64.3569 47.0752L60.5957 43.523L54.5012 37.0454C58.3756 29.8887 62.2325 23.1847 64.5659 14.0603C74.143 -23.9434 46.0733 -53.9807 20.8942 -62.8352C14.8519 -64.9596 8.42657 -64.9944 1.04349 -66.1785C-8.14184 -67.6499 -21.1145 -62.9745 -27.1655 -60.3278L-34.061 -56.7755L-43.464 -66.8054L-43.0461 -67.4322L-32.5983 -73.074C-27.0732 -75.4274 -21.3357 -77.2467 -15.464 -78.5069C28.3992 -88.3452 62.4067 -57.7855 74.1778 -30.0293C76.4241 -24.7009 77.7388 -18.6064 78.9838 -12.5118L79.8196 -3.90985Z" fill="#E5E5E5" fill-opacity="0.31"/>
<path fill-rule="evenodd" clip-rule="evenodd" d="M43.6704 66.5088C41.5634 68.7028 38.1505 69.8695 35.3122 71.3147C19.1443 79.5336 -5.70397 82.5287 -25.7027 75.4938C-60.1107 63.4005 -92.5162 22.5063 -75.2251 -26.2674C-72.5 -33.9552 -69.2176 -41.939 -64.1505 -47.3718L-54.5734 -37.133C-58.1604 -30.4378 -62 -24.0124 -64.1505 -15.6106C-73.153 19.0759 -51.9614 45.5349 -31.9366 57.3147C-25.607 61.0498 -9.34327 67.7625 1.91419 65.8819C9.44528 64.6456 16.0796 64.4976 22.1828 62.1207L34.3022 56.4789L43.6704 66.5088Z" fill="#E5E5E5" fill-opacity="0.31"/>
<path fill-rule="evenodd" clip-rule="evenodd" d="M37.6113 -3.49104C37.8899 11.31 33.3016 19.6334 26.1187 26.8075C24.4906 28.4356 22.6362 30.8037 20.0242 31.4045L10.2382 20.7478L10.4471 20.3299C19.3886 17.4828 26.5279 3.36095 21.7655 -8.50596C18.3526 -16.9512 11.5615 -21.8617 1.07896 -23.307C-12.7382 -25.2572 -26.2071 -9.4985 -22.533 5.11095C-20.6001 12.7726 -15.9944 15.4978 -11.2146 20.1557L-14.5578 23.708L-21.8713 30.3945C-42.2618 16.4642 -42.0964 -16.4114 -22.0802 -30.6204C-18.5646 -33.0847 -14.6875 -34.988 -10.5877 -36.2622C10.8737 -42.8704 28.7655 -29.1577 34.7556 -15.1577C36.2008 -11.6403 36.0354 -7.43507 37.6113 -3.49104Z" fill="#E5E5E5" fill-opacity="0.31"/>
<path fill-rule="evenodd" clip-rule="evenodd" d="M28.835 50.8365C27.4593 52.8477 23.7243 53.6226 21.3126 54.5977C6.10237 60.7532 -13.583 59.0119 -26.7471 52.2992C-47.0071 41.9734 -66.3354 14.5306 -56.175 -17.7356C-53.7285 -25.5714 -49.6103 -31.6659 -45.3093 -37.5863L-45.3093 -38.0042L-70.3839 -64.3326L-70.8019 -63.9147L-77.0705 -58.4819L-77.2795 -58.4819L-84.0357 -89.9993L-53.3193 -79.9694L-54.364 -78.7157L-59.7969 -73.9097L-34.5481 -46.7455C-32.0232 -43.6199 -26.7123 -40.712 -25.3541 -36.7157C-37.7173 -31.605 -48.9573 -7.1137 -43.1153 11.9709C-36.2546 34.3465 -9.88271 53.6748 18.7006 40.3888L28.835 50.8365Z" fill="#E5E5E5" fill-opacity="0.31"/>
</g>
</g>
<defs>
<clipPath id="clip0">
<rect width="179.701" height="168" fill="white" transform="translate(83.999 -89.9993) rotate(90)"/>
</clipPath>
</defs>
</svg>
