<svg width="50" height="50" viewBox="0 0 50 50" fill="none" xmlns="http://www.w3.org/2000/svg">
<g clip-path="url(#clip0)">
<path d="M50.0236 25.0126C50.0236 29.8602 48.6386 34.6155 45.9608 38.6783C45.4068 39.5555 44.8066 40.3404 44.1141 41.1252C42.5444 42.972 40.7439 44.5417 38.7586 45.8806C38.2046 46.2499 37.6506 46.5731 37.0966 46.8963C34.0957 48.5583 30.7716 49.574 27.4013 49.8972C26.6164 49.9895 25.8316 49.9895 25.0467 49.9895C22.8768 49.9895 20.7069 49.7125 18.5832 49.1585C17.3828 48.8353 16.2286 48.4198 15.0744 47.9581C14.4742 47.7273 13.9202 47.4503 13.3662 47.1271C12.0273 46.4346 10.7808 45.6035 9.58042 44.6802C9.0264 44.2647 8.51855 43.803 8.0107 43.3413C-2.1001 33.9692 -2.70028 18.1335 6.67183 8.02274C16.0439 -2.08806 31.8796 -2.73442 41.9904 6.68387C47.115 11.393 50.0236 18.0412 50.0236 25.0126Z" fill="#E4E8EF"/>
<path d="M18.9502 27.2733C18.9502 27.2733 21.2124 33.5984 19.458 37.1533C17.7037 40.7082 22.2281 44.7248 22.2281 44.7248C22.2281 44.7248 34.1395 38.6768 32.6159 35.6297C31.0924 32.5827 28.5532 28.566 29.061 26.0268L18.9502 27.2733Z" fill="#FFB8B8"/>
<path d="M23.3824 29.674C27.8445 29.674 31.4618 26.0567 31.4618 21.5946C31.4618 17.1325 27.8445 13.5152 23.3824 13.5152C18.9203 13.5152 15.303 17.1325 15.303 21.5946C15.303 26.0567 18.9203 29.674 23.3824 29.674Z" fill="#FFB8B8"/>
<path d="M18.5347 49.157C17.3343 48.8338 16.1801 48.4183 15.0259 47.9566L15.2567 41.8162L17.519 36.7378C18.0268 37.1533 18.5808 37.4764 19.1348 37.7996C19.2733 37.892 19.4118 37.9381 19.5503 38.0305C21.6741 39.0462 25.1829 39.9695 28.5531 37.4303C29.7997 36.4608 30.8615 35.2604 31.6464 33.9215L38.0637 37.5226L38.3869 41.4007L38.7563 45.9252C38.2023 46.2945 37.6482 46.6177 37.0942 46.9409C34.0933 48.6029 30.7692 49.6186 27.3989 49.9418C26.6141 50.0342 25.8292 50.0342 25.0444 50.0342C22.8283 50.0342 20.6584 49.711 18.5347 49.157Z" fill="#33C2D3"/>
<path d="M20.1042 32.952L19.781 36.2761L19.5964 38.0304L19.3655 40.6159L18.5345 49.1569C17.3341 48.8338 16.1799 48.4183 15.0257 47.9566C14.4255 47.7257 13.8715 47.4487 13.3175 47.1256C11.9786 46.433 10.7321 45.602 9.53173 44.6786L8.65454 40.5235L8.70071 40.4774L20.1042 32.952Z" fill="#33C2D3"/>
<path d="M37.0942 46.8947C34.0933 48.5568 30.7692 49.5725 27.3989 49.8956C27.5836 46.8024 27.8606 43.8476 28.1376 41.216C28.2761 39.8772 28.4608 38.5845 28.6455 37.4303C29.1995 33.7368 29.7997 31.1976 30.2152 30.8744L33.0314 32.7211L44.3888 36.7377L44.1579 41.1237C42.5882 42.9704 40.7877 44.5401 38.8024 45.879C38.2023 46.2484 37.6482 46.6177 37.0942 46.8947Z" fill="#33C2D3"/>
<path d="M9.57826 44.7248C9.02424 44.3093 8.51639 43.8476 8.00854 43.386L8.42406 40.5697L8.74723 40.5235L10.1784 40.3389L13.3179 47.1717C12.0252 46.433 10.7786 45.6482 9.57826 44.7248Z" fill="#33C2D3"/>
<path d="M45.9584 38.6768C45.4044 39.554 44.8042 40.3388 44.1117 41.1237C42.542 42.9704 40.7414 44.5401 38.7562 45.879C38.2022 46.2484 37.6482 46.5715 37.0941 46.8947L36.8171 45.602L38.433 41.4007L40.3721 36.2761L44.4349 36.7839C44.9427 37.3841 45.4506 38.0304 45.9584 38.6768Z" fill="#33C2D3"/>
<path d="M31.0923 14.2539C29.8458 12.2687 27.9529 10.7913 25.7368 10.1449L24.0748 11.4838L24.7211 9.96026C24.1671 9.86792 23.6593 9.86792 23.1052 9.86792L21.6279 11.7608L22.2281 9.91409C19.6426 10.2373 17.2881 11.6223 15.7645 13.746C13.8716 16.47 13.5485 20.2557 15.3952 22.9796C15.903 21.4099 16.5032 19.9326 17.0111 18.409C17.4266 18.4552 17.7959 18.4552 18.2114 18.409L18.8116 16.9778L18.9963 18.3628C20.9353 18.1782 23.7516 17.8088 25.5983 17.4856L25.4136 16.4238L26.4755 17.301C27.0295 17.1625 27.3527 17.0701 27.3527 16.9778C28.6916 19.1477 30.0305 20.5327 31.4155 22.7488C31.9233 19.6094 32.8005 17.0701 31.0923 14.2539Z" fill="#2F2E41"/>
<path d="M30.6307 22.4257C30.9367 22.4257 31.1847 21.9296 31.1847 21.3176C31.1847 20.7057 30.9367 20.2096 30.6307 20.2096C30.3247 20.2096 30.0767 20.7057 30.0767 21.3176C30.0767 21.9296 30.3247 22.4257 30.6307 22.4257Z" fill="#FFB8B8"/>
</g>
<defs>
<clipPath id="clip0">
<rect width="50" height="50" fill="white"/>
</clipPath>
</defs>
</svg>
