<svg width="27" height="16" viewBox="0 0 27 16" fill="none" xmlns="http://www.w3.org/2000/svg">
<g clip-path="url(#clip0)">
<path d="M0 0.195557V7.00821H3.56701C4.97096 7.00821 6.26837 6.51546 6.26837 5.06805C6.26837 4.08955 5.56347 3.64288 4.78815 3.40907C5.26052 3.2196 5.79639 2.82154 5.79639 1.98709C5.79639 0.919078 4.73669 0.195557 3.30993 0.195557H0ZM2.18519 1.78223H2.98857C3.31562 1.78223 3.565 2.0384 3.565 2.2984C3.565 2.53996 3.30587 2.79851 2.98857 2.79851H2.18519V1.78223ZM2.18519 4.21245H3.24566C3.61586 4.21245 3.92652 4.49362 3.92652 4.81499C3.92652 5.15624 3.63597 5.43961 3.18139 5.43961H2.18519V4.21245Z" fill="white"/>
<path d="M1.76733 7.75122V14.5639H5.33434C6.73829 14.5639 8.03571 14.0711 8.03571 12.6237C8.03571 11.6452 7.3308 11.1985 6.55548 10.9647C7.02786 10.7753 7.56372 10.3772 7.56372 9.54275C7.56372 8.47474 6.50402 7.75122 5.07726 7.75122H1.76733ZM3.95253 9.33789H4.75591C5.08295 9.33789 5.33233 9.59407 5.33233 9.85406C5.33233 10.0956 5.0732 10.3542 4.75591 10.3542H3.95253V9.33789ZM3.95253 11.7681H5.01299C5.38319 11.7681 5.69385 12.0493 5.69385 12.3706C5.69385 12.7119 5.4033 12.9953 4.94872 12.9953H3.95253V11.7681Z" fill="white"/>
<path d="M6.43994 7.00736V0.194702H11.9351V1.84002H8.61871V2.73338H11.3116V4.27587H8.61871V5.36846H11.9351V7.00736H6.43994Z" fill="white"/>
<path d="M14.9117 7.20236C16.4585 7.20236 17.6957 6.32007 17.6957 4.8903C17.6957 2.58284 14.6939 2.93792 14.6939 2.21949C14.6939 1.94197 14.9857 1.7947 15.285 1.7947C15.8009 1.7947 16.1735 2.13453 16.1735 2.13453L17.465 0.904862C16.9484 0.413285 16.1327 0 15.0337 0C13.3833 0 12.3035 0.979566 12.3035 2.16121C12.3035 4.49801 15.262 4.15886 15.262 4.89207C15.262 5.1491 15.0148 5.40767 14.5663 5.40767C14.0571 5.40767 13.6537 5.10028 13.3398 4.83948L12.0408 6.07792C12.5638 6.58742 13.4036 7.20236 14.9117 7.20236Z" fill="white"/>
<path d="M19.3775 7.00736V1.8336H17.5779V0.194702H23.3622V1.8336H21.5626V7.00736H19.3775Z" fill="white"/>
<path d="M8.11084 7.74634H10.2896V11.8275C10.2896 12.242 10.7021 12.6239 11.1321 12.6239C11.5377 12.6239 11.9478 12.279 11.9478 11.8057V7.74634H14.1201V11.778C14.1201 13.3777 12.7919 14.6538 11.0745 14.6538C9.34733 14.6538 8.11084 13.265 8.11084 11.6908V7.74634Z" fill="white"/>
<path d="M16.8067 14.559V12.1246L14.2458 7.74634H16.4503L17.8993 10.0922L19.3533 7.74634H21.5627L18.9918 12.1497V14.559H16.8067Z" fill="white"/>
<path d="M21.5627 11.475L20.2773 12.7604V14.4957L21.5627 15.7811H27V11.475H21.5627Z" fill="#FFED31"/>
<path d="M21.3514 13.6272C21.3514 13.787 21.2219 13.9165 21.0622 13.9165C20.9024 13.9165 20.7729 13.787 20.7729 13.6272C20.7729 13.4675 20.9024 13.338 21.0622 13.338C21.2219 13.338 21.3514 13.4675 21.3514 13.6272Z" fill="white"/>
</g>
<defs>
<clipPath id="clip0">
<rect width="27" height="15.7811" fill="white"/>
</clipPath>
</defs>
</svg>
