<svg width="21" height="20" viewBox="0 0 21 20" fill="none" xmlns="http://www.w3.org/2000/svg">
<g clip-path="url(#clip0)">
<path d="M20.4788 12.4184C19.0899 17.7784 13.445 21.0367 7.88139 19.7005C2.30965 18.3644 -1.07725 12.9341 0.311669 7.58183C1.7005 2.22183 7.33721 -1.03645 12.909 0.299721C18.4726 1.628 21.8677 7.05831 20.4788 12.4184Z" fill="url(#paint0_linear)"/>
<path d="M15.3439 8.75391C15.5469 7.42578 14.4993 6.70703 13.0538 6.23047L13.5248 4.42578L12.3879 4.15234L11.9331 5.91016C11.6326 5.83984 11.3241 5.76953 11.0155 5.70703L11.4702 3.94141L10.3333 3.66797L9.87041 5.46484C9.61866 5.41016 9.37504 5.35547 9.13953 5.30078V5.29297L7.56408 4.91797L7.26361 6.08984C7.26361 6.08984 8.10818 6.27734 8.09194 6.28516C8.55483 6.39453 8.63604 6.69141 8.6198 6.92578L8.08382 8.98047C8.1163 8.98828 8.1569 8.99609 8.20563 9.01953C8.16503 9.01172 8.12442 9.00391 8.08382 8.98828L7.3367 11.8633C7.27985 11.9961 7.13367 12.1992 6.81696 12.1211C6.82508 12.1367 5.98863 11.9258 5.98863 11.9258L5.42017 13.1836L6.90629 13.543C7.1824 13.6133 7.45039 13.6758 7.71838 13.7461L7.24737 15.5664L8.38429 15.8398L8.8553 14.0352C9.16389 14.1133 9.47249 14.1914 9.76484 14.2617L9.30195 16.0586L10.4389 16.332L10.9099 14.5117C12.8589 14.8633 14.3207 14.7227 14.9297 13.0273C15.4251 11.668 14.9054 10.8789 13.8821 10.3633C14.6374 10.1992 15.1977 9.72266 15.3439 8.75391ZM12.7371 12.2695C12.3879 13.6289 10.0003 12.8945 9.22886 12.707L9.85417 10.293C10.6257 10.4805 13.1106 10.8477 12.7371 12.2695ZM13.0944 8.73047C12.7696 9.97266 10.7881 9.33984 10.1465 9.18359L10.715 6.99609C11.3565 7.15234 13.4274 7.44141 13.0944 8.73047Z" fill="white"/>
</g>
<defs>
<linearGradient id="paint0_linear" x1="10.3894" y1="-0.00467793" x2="10.3894" y2="19.9981" gradientUnits="userSpaceOnUse">
<stop stop-color="#F9AA4B"/>
<stop offset="1" stop-color="#F7931A"/>
</linearGradient>
<clipPath id="clip0">
<rect width="20.7895" height="20" fill="white"/>
</clipPath>
</defs>
</svg>
