<svg width="45" height="45" viewBox="0 0 45 45" fill="none" xmlns="http://www.w3.org/2000/svg">
<g filter="url(#filter0_d)">
<circle cx="22.5" cy="18.5" r="16" fill="white" stroke="#3CC8D9" stroke-width="3"/>
<path fill-rule="evenodd" clip-rule="evenodd" d="M17 23.5C17 23.6326 17.0527 23.7598 17.1464 23.8536C17.2402 23.9473 17.3674 24 17.5 24H23.5C23.6326 24 23.7598 23.9473 23.8536 23.8536C23.9473 23.7598 24 23.6326 24 23.5C24 23.3674 23.9473 23.2402 23.8536 23.1465C23.7598 23.0527 23.6326 23 23.5 23H18.707L28.854 12.854C28.9479 12.7601 29.0006 12.6328 29.0006 12.5C29.0006 12.3672 28.9479 12.2399 28.854 12.146C28.7601 12.0521 28.6328 11.9994 28.5 11.9994C28.3672 11.9994 28.2399 12.0521 28.146 12.146L18 22.293V17.5C18 17.3674 17.9473 17.2402 17.8536 17.1465C17.7598 17.0527 17.6326 17 17.5 17C17.3674 17 17.2402 17.0527 17.1464 17.1465C17.0527 17.2402 17 17.3674 17 17.5V23.5Z" fill="#02021F"/>
</g>
<defs>
<filter id="filter0_d" x="0" y="0" width="45" height="45" filterUnits="userSpaceOnUse" color-interpolation-filters="sRGB">
<feFlood flood-opacity="0" result="BackgroundImageFix"/>
<feColorMatrix in="SourceAlpha" type="matrix" values="0 0 0 0 0 0 0 0 0 0 0 0 0 0 0 0 0 0 127 0"/>
<feOffset dy="4"/>
<feGaussianBlur stdDeviation="2.5"/>
<feColorMatrix type="matrix" values="0 0 0 0 0.898039 0 0 0 0 0.898039 0 0 0 0 0.898039 0 0 0 1 0"/>
<feBlend mode="normal" in2="BackgroundImageFix" result="effect1_dropShadow"/>
<feBlend mode="normal" in="SourceGraphic" in2="effect1_dropShadow" result="shape"/>
</filter>
</defs>
</svg>
