<svg width="30" height="30" viewBox="0 0 30 30" fill="none" xmlns="http://www.w3.org/2000/svg">
<path d="M16.9892 15L22.5556 9.43359C22.8197 9.16988 22.9683 8.81202 22.9687 8.43874C22.969 8.06546 22.821 7.70734 22.5573 7.44316C22.2936 7.17898 21.9358 7.03038 21.5625 7.03005C21.1892 7.02972 20.8311 7.17769 20.5669 7.4414L15.0005 13.0078L9.43408 7.4414C9.1699 7.17722 8.81159 7.02881 8.43799 7.02881C8.06438 7.02881 7.70607 7.17722 7.44189 7.4414C7.17771 7.70558 7.0293 8.06389 7.0293 8.4375C7.0293 8.81111 7.17771 9.16941 7.44189 9.43359L13.0083 15L7.44189 20.5664C7.17771 20.8306 7.0293 21.1889 7.0293 21.5625C7.0293 21.9361 7.17771 22.2944 7.44189 22.5586C7.70607 22.8228 8.06438 22.9712 8.43799 22.9712C8.81159 22.9712 9.1699 22.8228 9.43408 22.5586L15.0005 16.9922L20.5669 22.5586C20.8311 22.8228 21.1894 22.9712 21.563 22.9712C21.9366 22.9712 22.2949 22.8228 22.5591 22.5586C22.8233 22.2944 22.9717 21.9361 22.9717 21.5625C22.9717 21.1889 22.8233 20.8306 22.5591 20.5664L16.9892 15Z" fill="black"/>
</svg>
