<svg width="124" height="112" viewBox="0 0 124 112" fill="none" xmlns="http://www.w3.org/2000/svg">
<mask id="mask0" mask-type="alpha" maskUnits="userSpaceOnUse" x="-26" y="-88" width="150" height="200">
<rect x="-26" y="-88" width="150" height="200" rx="10" fill="#016FD0"/>
</mask>
<g mask="url(#mask0)">
<path fill-rule="evenodd" clip-rule="evenodd" d="M247 262.721L247 264L201.849 249.524L211.678 240.316L160.691 186.299L160.998 185.685C179.683 177.449 195.514 141.949 186.85 113.559C177.021 81.5887 137.398 52.585 96.2403 72.4323L81.19 57.0865L81.8042 56.1657C95.0373 51.8944 109.614 42.2777 130.334 45.7305C143.337 47.9173 154.791 49.9634 164.377 55.5519C191.636 71.4476 221.276 108.776 207.07 155.3C203.167 168.088 196.973 177.59 190.177 187.271L218.435 217.349C220.854 219.766 226.37 227.502 228.571 225.021L237.171 217.655L237.478 217.655L247 262.721Z" fill="black" fill-opacity="0.17"/>
<path fill-rule="evenodd" clip-rule="evenodd" d="M240.857 126.45C241.445 159.98 231.604 182.027 218.128 201.338L212.599 196.12L203.64 186.606C209.335 176.094 215.005 166.247 218.435 152.845C232.513 97.024 191.252 52.9046 154.24 39.899C145.359 36.7787 135.914 36.7275 125.061 34.9883C111.559 32.8271 92.4903 39.6944 83.5957 43.582L73.4597 48.7996L59.638 34.0676L60.2523 33.1468L75.6098 24.86C83.7313 21.4033 92.1651 18.7312 100.796 16.8802C165.272 2.42949 215.261 47.3162 232.564 88.085C235.866 95.9114 237.798 104.863 239.628 113.815L240.857 126.45Z" fill="black" fill-opacity="0.17"/>
<path fill-rule="evenodd" clip-rule="evenodd" d="M187.719 229.882C184.622 233.105 179.605 234.818 175.433 236.941C151.667 249.013 115.142 253.412 85.7448 243.08C35.1673 225.317 -12.4666 165.25 12.9501 93.6107C16.9559 82.3187 21.7807 70.5919 29.2291 62.6121L43.3068 77.651C38.0341 87.4852 32.3902 96.9229 29.2291 109.264C15.996 160.212 47.1462 199.075 76.5815 216.378C85.8856 221.864 109.792 231.724 126.34 228.961C137.41 227.145 147.162 226.928 156.133 223.437L173.948 215.15L187.719 229.882Z" fill="black" fill-opacity="0.17"/>
<path fill-rule="evenodd" clip-rule="evenodd" d="M178.813 127.065C179.222 148.805 172.478 161.031 161.92 171.568C159.526 173.959 156.8 177.438 152.961 178.32L138.576 162.667L138.883 162.054C152.027 157.872 162.521 137.129 155.521 119.699C150.504 107.294 140.521 100.082 125.113 97.959C104.802 95.0944 85.0041 118.241 90.4048 139.7C93.2459 150.953 100.016 154.956 107.042 161.798L102.128 167.015L91.3774 176.837C61.4047 156.376 61.6479 108.087 91.0703 87.2169C96.238 83.5973 101.937 80.8017 107.964 78.9301C139.51 69.2238 165.81 89.3653 174.615 109.929C176.74 115.095 176.496 121.272 178.813 127.065Z" fill="black" fill-opacity="0.17"/>
<path fill-rule="evenodd" clip-rule="evenodd" d="M165.913 206.862C163.891 209.816 158.4 210.955 154.855 212.387C132.497 221.428 103.561 218.87 84.2106 209.011C54.4298 193.844 26.0184 153.535 40.9536 106.142C44.5498 94.6329 50.6032 85.6811 56.9254 76.9851L56.9254 76.3713L20.0673 37.6997L19.453 38.3135L10.2385 46.2934L9.93136 46.2934L0.000167847 -7.25226e-06L45.1513 14.732L43.6155 16.5735L35.6296 23.6326L72.7436 63.5319C76.455 68.1229 84.2618 72.3941 86.2583 78.2639C68.0852 85.7706 51.563 121.744 60.1505 149.776C70.2352 182.641 109 211.031 151.016 191.516L165.913 206.862Z" fill="black" fill-opacity="0.17"/>
</g>
</svg>
