<svg width="60" height="60" viewBox="0 0 60 60" fill="none" xmlns="http://www.w3.org/2000/svg">
<path d="M27.0004 42C27.0004 43.892 26.3374 45.629 25.2344 47H50.0004C52.7624 47 55.0004 44.762 55.0004 42V40H27.0004V42Z" fill="#252525"/>
<path d="M48 9V5C48 3.896 47.104 3 46 3C44.896 3 44 3.896 44 5V12.5C44 13.328 43.328 14 42.5 14C41.672 14 41 13.328 41 12.5V9H37V5C37 3.896 36.104 3 35 3C33.896 3 33 3.896 33 5V12.5C33 13.328 32.328 14 31.5 14C30.672 14 30 13.328 30 12.5V9H26V5C26 3.896 25.104 3 24 3C22.896 3 22 3.896 22 5V12.5C22 13.328 21.328 14 20.5 14C19.672 14 19 13.328 19 12.5V9H18C15.791 9 14 10.791 14 13V42C14 44.762 16.238 47 19 47C21.762 47 24 44.762 24 42V37H52V13C52 10.791 50.209 9 48 9ZM42.367 22.459L33.367 31.459C33.01 31.795 32.529 32 32 32C31.447 32 30.947 31.776 30.586 31.414L25.586 26.414C25.224 26.053 25 25.553 25 25C25 23.896 25.896 23 27 23C27.553 23 28.053 23.224 28.414 23.586L32.045 27.217L39.633 19.541C39.99 19.205 40.471 19 41 19C42.104 19 43 19.896 43 21C43 21.576 42.757 22.095 42.367 22.459Z" fill="#04172A"/>
<path d="M19 50C14.589 50 11 46.411 11 42V13H8C7.447 13 7 13.447 7 14V55C7 55.553 7.447 56 8 56H44C44.553 56 45 55.553 45 55V50H19Z" fill="#252525"/>
</svg>
