<svg width="45" height="45" viewBox="0 0 45 45" fill="none" xmlns="http://www.w3.org/2000/svg">
<g filter="url(#filter0_d)">
<circle cx="22.5" cy="18.5" r="16" fill="white" stroke="#02021F" stroke-width="3"/>
<path fill-rule="evenodd" clip-rule="evenodd" d="M29 12.5C29 12.3674 28.9473 12.2402 28.8536 12.1464C28.7598 12.0527 28.6326 12 28.5 12H22.5C22.3674 12 22.2402 12.0527 22.1464 12.1464C22.0527 12.2402 22 12.3674 22 12.5C22 12.6326 22.0527 12.7598 22.1464 12.8535C22.2402 12.9473 22.3674 13 22.5 13H27.293L17.146 23.146C17.0521 23.2399 16.9994 23.3672 16.9994 23.5C16.9994 23.6328 17.0521 23.7601 17.146 23.854C17.2399 23.9479 17.3672 24.0006 17.5 24.0006C17.6328 24.0006 17.7601 23.9479 17.854 23.854L28 13.707V18.5C28 18.6326 28.0527 18.7598 28.1464 18.8535C28.2402 18.9473 28.3674 19 28.5 19C28.6326 19 28.7598 18.9473 28.8536 18.8535C28.9473 18.7598 29 18.6326 29 18.5V12.5Z" fill="#02021F"/>
</g>
<defs>
<filter id="filter0_d" x="0" y="0" width="45" height="45" filterUnits="userSpaceOnUse" color-interpolation-filters="sRGB">
<feFlood flood-opacity="0" result="BackgroundImageFix"/>
<feColorMatrix in="SourceAlpha" type="matrix" values="0 0 0 0 0 0 0 0 0 0 0 0 0 0 0 0 0 0 127 0"/>
<feOffset dy="4"/>
<feGaussianBlur stdDeviation="2.5"/>
<feColorMatrix type="matrix" values="0 0 0 0 0.898039 0 0 0 0 0.898039 0 0 0 0 0.898039 0 0 0 1 0"/>
<feBlend mode="normal" in2="BackgroundImageFix" result="effect1_dropShadow"/>
<feBlend mode="normal" in="SourceGraphic" in2="effect1_dropShadow" result="shape"/>
</filter>
</defs>
</svg>
