<svg width="150" height="150" viewBox="0 0 150 150" fill="none" xmlns="http://www.w3.org/2000/svg">
<path d="M150 75C150 33.5786 116.421 0 75 0C33.5786 0 0 33.5786 0 75C0 116.421 33.5786 150 75 150C116.421 150 150 116.421 150 75Z" fill="#E0FFE5"/>
<path d="M120.731 75C120.731 49.7431 100.256 29.2683 74.9993 29.2683C49.7424 29.2683 29.2676 49.7431 29.2676 75C29.2676 100.257 49.7424 120.732 74.9993 120.732C100.256 120.732 120.731 100.257 120.731 75Z" fill="#4CD964"/>
<path d="M91.5001 62.7474L89.3069 60.9821C88.2258 60.1132 87.5974 60.1233 86.6718 61.2666L70.7306 80.9394L63.312 74.7757C62.2886 73.916 61.6483 73.9617 60.8069 75.0135L59.1139 77.2178C58.255 78.2989 58.3648 78.9126 59.38 79.7605L69.9532 88.5062C71.0416 89.4208 71.6544 89.3266 72.4959 88.3032L91.7754 65.3815C92.6809 64.2931 92.626 63.6428 91.5001 62.7474Z" fill="white"/>
</svg>
