<svg width="33" height="30" viewBox="0 0 33 30" fill="none" xmlns="http://www.w3.org/2000/svg">
<g clip-path="url(#clip0)">
<path fill-rule="evenodd" clip-rule="evenodd" d="M31.941 -0.000610352H32.0965L30.3365 5.48446L29.2171 4.29043L22.65 10.4845L22.5753 10.4472C21.5741 8.17725 17.2582 6.25405 13.8067 7.3066C9.91987 8.50063 6.39375 13.3141 8.80669 18.3141L6.94102 20.1424L6.82908 20.0678C6.3098 18.4602 5.14064 16.6894 5.56042 14.1723C5.82628 12.5927 6.07503 11.2012 6.75445 10.0367C8.68697 6.72514 13.2252 3.12439 18.8813 4.85014C20.436 5.32433 21.5912 6.07682 22.7681 6.90237L26.4248 3.46954C26.7187 3.1757 27.6593 2.50561 27.3577 2.2382L26.4622 1.19342V1.15611L31.941 -0.000610352Z" fill="#E5E5E5"/>
<path fill-rule="evenodd" clip-rule="evenodd" d="M15.3738 0.745722C19.4503 0.674205 22.1307 1.86979 24.4783 3.50692L23.844 4.17856L22.6873 5.26687C21.4093 4.57501 20.2121 3.88627 18.5828 3.4696C11.7964 1.7594 6.4326 6.77184 4.85145 11.2681C4.47209 12.3471 4.46587 13.4945 4.25443 14.8129C3.99168 16.4531 4.82657 18.7697 5.29921 19.8502L5.93354 21.0815L4.14249 22.7606L4.03055 22.686L3.02309 20.8203C2.60284 19.8337 2.27797 18.8092 2.05294 17.7606C0.296099 9.92794 5.75319 3.85517 10.7097 1.75318C11.6611 1.35207 12.7495 1.1173 13.8378 0.894976L15.3738 0.745722Z" fill="#E5E5E5"/>
<path fill-rule="evenodd" clip-rule="evenodd" d="M27.9486 7.20093C28.3404 7.57717 28.5487 8.18662 28.8068 8.69346C30.2745 11.5806 30.8093 16.0178 29.5531 19.589C27.3936 25.7333 20.091 31.52 11.3814 28.4323C10.0086 27.9456 8.58294 27.3595 7.61279 26.4547L9.44115 24.7445C10.6367 25.385 11.7841 26.0706 13.2844 26.4547C19.4785 28.0622 24.2033 24.278 26.3068 20.7022C26.9738 19.5719 28.1725 16.6677 27.8367 14.6574C27.6159 13.3126 27.5895 12.1279 27.165 11.038L26.1576 8.87381L27.9486 7.20093Z" fill="#E5E5E5"/>
<path fill-rule="evenodd" clip-rule="evenodd" d="M15.4486 8.28291C18.0917 8.23316 19.578 9.0525 20.8591 10.3351C21.1498 10.6259 21.5727 10.957 21.68 11.4235L19.777 13.171L19.7024 13.1337C19.194 11.5369 16.6722 10.2621 14.5531 11.1125C13.045 11.722 12.1682 12.9346 11.9101 14.8065C11.5618 17.2739 14.3759 19.679 16.9847 19.023C18.3529 18.6778 18.8395 17.8554 19.6713 17.0018L20.3056 17.5988L21.4996 18.9048C19.0121 22.546 13.1414 22.5164 10.6041 18.9421C10.1641 18.3143 9.8242 17.622 9.59666 16.8899C8.41662 13.0575 10.8653 9.86251 13.3653 8.79286C13.9934 8.53477 14.7444 8.56431 15.4486 8.28291Z" fill="#E5E5E5"/>
<path fill-rule="evenodd" clip-rule="evenodd" d="M25.15 9.8501C25.5091 10.0957 25.6475 10.7627 25.8216 11.1934C26.9208 13.9095 26.6099 17.4247 25.4112 19.7755C23.5673 23.3933 18.6668 26.8448 12.905 25.0304C11.5057 24.5936 10.4174 23.8582 9.36019 23.0901H9.28556L4.58407 27.5678L4.65869 27.6424L5.62884 28.7618V28.7991L0.000732422 30.0056L1.79178 24.5205L2.01566 24.7071L2.87387 25.6772L7.72461 21.1685C8.28276 20.7176 8.80204 19.7693 9.51566 19.5267C10.4283 21.7344 14.8017 23.7416 18.2097 22.6984C22.2053 21.4732 25.6568 16.764 23.2843 11.6598L25.15 9.8501Z" fill="#E5E5E5"/>
</g>
<defs>
<clipPath id="clip0">
<rect width="32.0896" height="30" fill="white" transform="translate(0.000732422 -0.000610352)"/>
</clipPath>
</defs>
</svg>
