<svg width="25" height="25" viewBox="0 0 25 25" fill="none" xmlns="http://www.w3.org/2000/svg">
<path d="M17.9688 3.125H7.03125C6.59978 3.125 6.25 3.47478 6.25 3.90625C6.25 4.33772 6.59978 4.6875 7.03125 4.6875H17.9688C18.4002 4.6875 18.75 4.33772 18.75 3.90625C18.75 3.47478 18.4002 3.125 17.9688 3.125Z" fill="#33C2D3"/>
<path d="M19.5312 5.46875H5.46875C5.03728 5.46875 4.6875 5.81853 4.6875 6.25C4.6875 6.68147 5.03728 7.03125 5.46875 7.03125H19.5312C19.9627 7.03125 20.3125 6.68147 20.3125 6.25C20.3125 5.81853 19.9627 5.46875 19.5312 5.46875Z" fill="#33C2D3"/>
<path d="M22.6562 20.875C22.6562 21.4273 22.2085 21.875 21.6562 21.875H3.34375C2.79146 21.875 2.34375 21.4273 2.34375 20.875V8.8125C2.34375 8.26021 2.79147 7.8125 3.34375 7.8125H21.6563C22.2085 7.8125 22.6562 8.26022 22.6562 8.8125V20.875Z" fill="#33C2D3"/>
</svg>
