<svg width="22" height="26" viewBox="0 0 22 26" fill="none" xmlns="http://www.w3.org/2000/svg">
<path d="M21.0591 18.5916C19.5544 16.75 18.4921 15.8125 18.4921 10.7354C18.4921 6.08594 16.1178 4.42949 14.1637 3.625C13.9042 3.51836 13.6598 3.27344 13.5807 3.00684C13.238 1.84023 12.277 0.8125 10.9997 0.8125C9.72234 0.8125 8.76081 1.84082 8.42155 3.00801C8.34245 3.27754 8.09812 3.51836 7.83855 3.625C5.8821 4.43066 3.51023 6.08125 3.51023 10.7354C3.5073 15.8125 2.44499 16.75 0.940304 18.5916C0.316867 19.3545 0.86296 20.5 1.95339 20.5H20.0518C21.1364 20.5 21.679 19.351 21.0591 18.5916Z" stroke="black" stroke-linecap="round" stroke-linejoin="round"/>
<path d="M14.75 20.5V21.4375C14.75 22.4321 14.3549 23.3859 13.6516 24.0891C12.9484 24.7924 11.9946 25.1875 11 25.1875C10.0054 25.1875 9.05161 24.7924 8.34835 24.0891C7.64509 23.3859 7.25 22.4321 7.25 21.4375V20.5" stroke="black" stroke-linecap="round" stroke-linejoin="round"/>
</svg>
