<svg width="25" height="25" viewBox="0 0 25 25" fill="none" xmlns="http://www.w3.org/2000/svg">
<path d="M12.8073 9.39014C12.1662 9.32681 11.5211 9.46322 10.9604 9.78068C10.3998 10.0981 9.95096 10.5811 9.67541 11.1635C9.39986 11.7459 9.31106 12.3992 9.42117 13.0341C9.53128 13.6689 9.83491 14.2541 10.2905 14.7097C10.7461 15.1653 11.3313 15.4689 11.9661 15.579C12.601 15.6891 13.2543 15.6003 13.8367 15.3248C14.4191 15.0492 14.9021 14.6004 15.2195 14.0398C15.537 13.4791 15.6734 12.834 15.6101 12.1929C15.5379 11.4741 15.2194 10.8024 14.7086 10.2916C14.1978 9.78081 13.5261 9.46233 12.8073 9.39014V9.39014ZM20.3318 12.5C20.3298 12.8397 20.3048 13.1788 20.257 13.5151L22.4646 15.2466C22.5607 15.3263 22.6255 15.4374 22.6474 15.5604C22.6693 15.6833 22.6469 15.81 22.5842 15.918L20.4958 19.5312C20.4324 19.6382 20.3333 19.7193 20.2159 19.7603C20.0985 19.8013 19.9704 19.7996 19.8542 19.7554L17.6618 18.8726C17.5409 18.8244 17.41 18.807 17.2807 18.8219C17.1514 18.8369 17.0279 18.8836 16.9211 18.958C16.5865 19.1884 16.2349 19.3931 15.8693 19.5703C15.7544 19.6262 15.655 19.7095 15.5799 19.8129C15.5048 19.9162 15.4563 20.0365 15.4387 20.1631L15.1101 22.5015C15.0885 22.625 15.0247 22.7371 14.9296 22.8188C14.8345 22.9005 14.7139 22.9466 14.5886 22.9492H10.4118C10.2886 22.9471 10.1697 22.903 10.0748 22.8243C9.97993 22.7456 9.91469 22.6369 9.88985 22.5161L9.56173 20.1812C9.5433 20.0532 9.49355 19.9318 9.41688 19.8277C9.34021 19.7236 9.23901 19.64 9.12228 19.5845C8.75715 19.4082 8.40674 19.203 8.07443 18.9707C7.96803 18.8967 7.84488 18.8503 7.71608 18.8357C7.58728 18.8211 7.45688 18.8388 7.33663 18.8872L5.14474 19.7695C5.02858 19.8138 4.90054 19.8156 4.78317 19.7747C4.6658 19.7338 4.56663 19.6528 4.50314 19.5459L2.41476 15.9326C2.35197 15.8247 2.32953 15.6979 2.35144 15.575C2.37335 15.452 2.43818 15.3409 2.53439 15.2612L4.40011 13.7964C4.50232 13.7152 4.58266 13.6099 4.63382 13.4898C4.68498 13.3697 4.70535 13.2388 4.69308 13.1089C4.6755 12.9053 4.66476 12.7021 4.66476 12.4985C4.66476 12.2949 4.67501 12.0947 4.69308 11.8955C4.70401 11.7664 4.68264 11.6365 4.6309 11.5177C4.57916 11.3989 4.49867 11.2948 4.39669 11.2148L2.53194 9.75C2.4373 9.66997 2.37383 9.55918 2.35267 9.43705C2.33152 9.31492 2.35401 9.18924 2.41622 9.08203L4.5046 5.46875C4.56802 5.36181 4.66716 5.28069 4.78453 5.23969C4.90191 5.19869 5.02999 5.20044 5.1462 5.24463L7.33859 6.12744C7.45949 6.17558 7.59044 6.19297 7.71971 6.17806C7.84899 6.16314 7.97254 6.11639 8.07931 6.04199C8.4139 5.81158 8.7655 5.60689 9.13107 5.42969C9.246 5.37383 9.3454 5.29053 9.42051 5.18715C9.49562 5.08377 9.54412 4.96348 9.56173 4.83691L9.89034 2.49854C9.91193 2.37504 9.97573 2.26287 10.0708 2.1812C10.166 2.09954 10.2865 2.05344 10.4118 2.05078H14.5886C14.7119 2.05291 14.8307 2.09697 14.9256 2.1757C15.0205 2.25443 15.0857 2.36313 15.1106 2.48389L15.4387 4.81885C15.4571 4.94681 15.5069 5.06824 15.5835 5.17233C15.6602 5.27643 15.7614 5.35997 15.8781 5.41553C16.2433 5.59178 16.5937 5.79702 16.926 6.0293C17.0324 6.10333 17.1555 6.14972 17.2843 6.1643C17.4131 6.17887 17.5435 6.16117 17.6638 6.11279L19.8557 5.23047C19.9718 5.18624 20.0999 5.18441 20.2172 5.22532C20.3346 5.26623 20.4338 5.34725 20.4973 5.4541L22.5857 9.06738C22.6484 9.17534 22.6709 9.30207 22.649 9.42502C22.6271 9.54796 22.5622 9.65915 22.466 9.73877L20.6003 11.2036C20.4976 11.2845 20.4168 11.3898 20.3652 11.5098C20.3137 11.6299 20.2929 11.761 20.3049 11.8911C20.321 12.0933 20.3318 12.2964 20.3318 12.5Z" stroke="black" stroke-width="0.5" stroke-linecap="round" stroke-linejoin="round"/>
</svg>
