<svg width="27" height="33" viewBox="0 0 27 33" fill="none" xmlns="http://www.w3.org/2000/svg">
<path d="M22.0595 25.5916C20.5549 23.75 19.4926 22.8125 19.4926 17.7354C19.4926 13.0859 17.1183 11.4295 15.1642 10.625C14.9047 10.5184 14.6603 10.2734 14.5812 10.0068C14.2384 8.84023 13.2775 7.8125 12.0002 7.8125C10.7228 7.8125 9.7613 8.84082 9.42204 10.008C9.34294 10.2775 9.09861 10.5184 8.83903 10.625C6.88259 11.4307 4.51071 13.0813 4.51071 17.7354C4.50778 22.8125 3.44548 23.75 1.94079 25.5916C1.31735 26.3545 1.86345 27.5 2.95388 27.5H21.0523C22.1369 27.5 22.6795 26.351 22.0595 25.5916Z" stroke="black" stroke-width="1.5" stroke-linecap="round" stroke-linejoin="round"/>
<path d="M15.75 27.5V28.4375C15.75 29.4321 15.3549 30.3859 14.6516 31.0891C13.9484 31.7924 12.9946 32.1875 12 32.1875C11.0054 32.1875 10.0516 31.7924 9.34835 31.0891C8.64509 30.3859 8.25 29.4321 8.25 28.4375V27.5" stroke="black" stroke-width="1.5" stroke-linecap="round" stroke-linejoin="round"/>
<circle cx="22" cy="5" r="5" fill="#3CC8D9"/>
</svg>
