<svg width="25" height="25" viewBox="0 0 25 25" fill="none" xmlns="http://www.w3.org/2000/svg">
<path d="M20.3125 7.03125H4.6875C3.39308 7.03125 2.34375 8.08058 2.34375 9.375V18.75C2.34375 20.0444 3.39308 21.0938 4.6875 21.0938H20.3125C21.6069 21.0938 22.6562 20.0444 22.6562 18.75V9.375C22.6562 8.08058 21.6069 7.03125 20.3125 7.03125Z" stroke="black" stroke-linejoin="round"/>
<path d="M20.0859 7.0312V5.56635C20.0858 5.20708 20.0064 4.85226 19.8534 4.52721C19.7003 4.20216 19.4775 3.91489 19.2006 3.6859C18.9238 3.45691 18.5998 3.29184 18.2518 3.20247C17.9038 3.1131 17.5404 3.10164 17.1875 3.16889L4.32813 5.36372C3.76969 5.47014 3.2659 5.7681 2.90364 6.20622C2.54138 6.64433 2.34337 7.19513 2.34375 7.76362V10.1562" stroke="black" stroke-linejoin="round"/>
<path d="M17.9688 15.625C17.6597 15.625 17.3576 15.5334 17.1007 15.3617C16.8437 15.19 16.6435 14.946 16.5252 14.6605C16.4069 14.3749 16.376 14.0608 16.4363 13.7577C16.4966 13.4546 16.6454 13.1762 16.8639 12.9576C17.0824 12.7391 17.3608 12.5903 17.6639 12.53C17.967 12.4697 18.2812 12.5007 18.5667 12.6189C18.8522 12.7372 19.0962 12.9375 19.2679 13.1944C19.4396 13.4514 19.5313 13.7535 19.5313 14.0625C19.5313 14.4769 19.3666 14.8743 19.0736 15.1674C18.7806 15.4604 18.3832 15.625 17.9688 15.625Z" fill="black"/>
</svg>
