<svg width="25" height="25" viewBox="0 0 25 25" fill="none" xmlns="http://www.w3.org/2000/svg">
<path d="M2.31934 5.07818H21.0938V2.51568C21.0938 2.40008 21.0681 2.28592 21.0187 2.18143C20.9692 2.07694 20.8972 1.98472 20.8078 1.91144C20.7184 1.83815 20.6138 1.78561 20.5017 1.75762C20.3895 1.72963 20.2725 1.72688 20.1592 1.74957L2.19043 4.70269C2.05663 4.72933 1.93214 4.79054 1.82934 4.88023C1.72654 4.96992 1.64902 5.08497 1.60449 5.21392C1.83207 5.12395 2.07462 5.07789 2.31934 5.07818V5.07818Z" fill="#3CC8D9"/>
<path d="M22.6318 6.25H2.31934C2.11214 6.25 1.91342 6.33231 1.76691 6.47882C1.6204 6.62534 1.53809 6.82405 1.53809 7.03125V21.0938C1.53809 21.301 1.6204 21.4997 1.76691 21.6462C1.91342 21.7927 2.11214 21.875 2.31934 21.875H22.6318C22.839 21.875 23.0378 21.7927 23.1843 21.6462C23.3308 21.4997 23.4131 21.301 23.4131 21.0938V7.03125C23.4131 6.82405 23.3308 6.62534 23.1843 6.47882C23.0378 6.33231 22.839 6.25 22.6318 6.25ZM17.9688 15.625C17.6597 15.625 17.3576 15.5334 17.1007 15.3617C16.8437 15.19 16.6435 14.946 16.5252 14.6604C16.4069 14.3749 16.376 14.0608 16.4363 13.7577C16.4966 13.4546 16.6454 13.1762 16.8639 12.9576C17.0824 12.7391 17.3608 12.5903 17.6639 12.53C17.967 12.4697 18.2812 12.5007 18.5667 12.6189C18.8522 12.7372 19.0962 12.9375 19.2679 13.1944C19.4396 13.4514 19.5312 13.7535 19.5312 14.0625C19.5312 14.4769 19.3666 14.8743 19.0736 15.1674C18.7806 15.4604 18.3832 15.625 17.9688 15.625Z" fill="#3CC8D9"/>
<path d="M1.5293 12.6709V5.66406C1.5293 5.06201 1.80859 4.76172 2.28223 4.6875C4.00098 4.41748 7.58398 4.27246 7.58398 4.27246C7.58398 4.27246 7.17725 5.05371 6.24951 5.05371V6.25C7.15283 6.25 7.7793 7.39746 7.7793 7.39746L4.1416 11.5234L1.5293 12.6709Z" fill="#3CC8D9"/>
</svg>
